# xmcd
# 
# Track frame offsets:
#     150
#     46116
#     78903
#     107704
#     140813
#     153068
#     163775
#     195652
#     210835
# 
# Disc length: 3393
# 
# Revision: 5
# Processed by: cddbd v1.5.2PL0 Copyright (c) Steve Scherf et al.
# Submitted via: BonkEnc v1.0beta4
# 
DISCID=6a0d3f09
DTITLE=Deep Purple - NEC Arena Birmingham 09-11-93 Disc 2
DYEAR=2006
DGENRE=Hard Rock
TTITLE0=Child In Time
TTITLE1=Anya
TTITLE2=The Battle Rages On
TTITLE3=Lazy and Drum Solo
TTITLE4=Space Truckin'
TTITLE5=Woman From Tokyo
TTITLE6=Paint It Black
TTITLE7=Hush
TTITLE8=Smoke On The Water
EXTD=
EXTT0=
EXTT1=
EXTT2=
EXTT3=
EXTT4=
EXTT5=
EXTT6=
EXTT7=
EXTT8=
PLAYORDER=
